# xmcd CD database file
#
# Track frame offsets:
#	155
#	12107
#	26467
#	38337
#
# Disc length: 701 seconds
#
# Revision: 0
# Processed by: cddbd v1.4PL0 Copyright (c) Steve Scherf et al.
# Submitted via: CDex 1.50
#
DISCID=1b02bb04
DTITLE=Castro - Muziek
DYEAR=2003
DGENRE=Nederhop
TTITLE0=Muziek
TTITLE1=Die skillz
TTITLE2=Muziek ( Instrumentaal )
TTITLE3=Die skillz ( Instrumentaal )
EXTD=YEAR: 2003
EXTT0=
EXTT1=
EXTT2=
EXTT3=
PLAYORDER=
